# xmcd CD database file
#
# Track frame offsets:
#	150
#	21221
#	34416
#	59040
#	84726
#	102898
#	119653
#	141108
#	157118
#	181188
#	203478
#	218303
#	237325
#
# Disc length: 3363 seconds
#
# Revision: 0
# Processed by: cddbd v1.5.2PL0 Copyright (c) Steve Scherf et al.
# Submitted via: CDex 1.51
#
DISCID=b60d210d
DTITLE=Rebekka Bakken - September
DYEAR=2011
DGENRE=Blues
TTITLE0=September
TTITLE1=Strange evening
TTITLE2=Love is everything
TTITLE3=Forever young
TTITLE4=Same kind
TTITLE5=Never been to Paris
TTITLE6=Driving
TTITLE7=The Wrestler
TTITLE8=Mina´s Dream
TTITLE9=After all
TTITLE10=Girl next door
TTITLE11=Innocent Thief
TTITLE12=I will get by
EXTD=YEAR: 2011
EXTT0=
EXTT1=
EXTT2=
EXTT3=
EXTT4=
EXTT5=
EXTT6=
EXTT7=
EXTT8=
EXTT9=
EXTT10=
EXTT11=
EXTT12=
PLAYORDER=
